<svg width="1190" height="332" xmlns="http://www.w3.org/2000/svg" xmlns:xlink="http://www.w3.org/1999/xlink" xml:space="preserve" overflow="hidden"><defs><clipPath id="clip0"><rect x="1445" y="798" width="1190" height="332"/></clipPath></defs><g clip-path="url(#clip0)" transform="translate(-1445 -798)"><path d="M2147 798 2176 798 2176 1122 2147 1122 2147 798Z" fill="currentColor" fill-rule="evenodd"/><path d="M2552.28 798 2582.58 798 2582.58 888.406 2630 888.406 2630 913.984 2582.58 913.984 2582.58 1033 2552.28 1033 2552.28 913.984 2511 913.984 2511 888.406 2552.28 888.406Z" fill="currentColor" fill-rule="evenodd"/><path d="M1445 806 1479.22 806 1583.62 1058.24 1689.78 806 1724 806 1586.69 1130 1580.11 1130 1445 806Z" fill="currentColor" fill-rule="evenodd"/><path d="M1973.22 882C2007.05 882 2035.8 894.187 2059.48 918.561 2083.16 942.935 2095 972.302 2095 1006.66 2095 1040.43 2083.31 1069.43 2059.92 1093.66 2036.54 1117.89 2007.64 1130 1973.22 1130 1938.8 1130 1909.83 1117.89 1886.3 1093.66 1862.77 1069.43 1851 1040.43 1851 1006.66 1851 972.302 1862.84 942.935 1886.52 918.561 1910.2 894.187 1939.1 882 1973.22 882ZM1973.22 911.514C1948.22 911.514 1926.74 920.984 1908.8 939.925 1890.86 958.867 1881.89 981.259 1881.89 1007.1 1881.89 1033.53 1890.56 1055.85 1907.92 1074.06 1925.27 1092.26 1947.04 1101.37 1973.22 1101.37 1998.52 1101.37 2020.06 1092.19 2037.86 1073.84 2055.66 1055.48 2064.56 1033.24 2064.56 1007.1 2064.56 981.259 2055.51 958.867 2037.42 939.925 2019.33 920.984 1997.93 911.514 1973.22 911.514Z" fill="currentColor" fill-rule="evenodd"/><path d="M2348.62 882C2382.63 882 2411.14 893.306 2434.16 915.919 2457.17 938.53 2469.12 969.365 2470 1008.42L2259.78 1008.42C2260.66 1036.61 2269.53 1059.3 2286.39 1076.48 2303.25 1093.66 2323.7 1102.25 2347.74 1102.25 2387.32 1102.25 2416.93 1083.6 2436.58 1046.31L2462.08 1059.52C2436.87 1106.51 2399.63 1130 2350.38 1130 2315.2 1130 2286.17 1117.89 2263.3 1093.66 2240.43 1069.43 2229 1040.43 2229 1006.66 2229 972.302 2240.51 942.935 2263.52 918.561 2286.54 894.187 2314.9 882 2348.62 882ZM2349.06 911.073C2305.08 911.073 2276.35 934.86 2262.86 982.433L2436.58 982.433C2432.47 960.115 2422.21 942.642 2405.79 930.014 2389.37 917.387 2370.46 911.073 2349.06 911.073Z" fill="currentColor" fill-rule="evenodd"/><path d="M1768 888 1799 888 1799 1122 1768 1122 1768 888Z" fill="currentColor" fill-rule="evenodd"/><path d="M1768 806 1798 806 1798 836 1768 836 1768 806Z" fill="currentColor" fill-rule="evenodd"/><path d="M2634.68 1108C2597.79 1108.43 2567.54 1074.28 2567.01 1031.61" stroke="currentColor" stroke-width="30.25" stroke-miterlimit="8" fill="none" fill-rule="evenodd"/></g></svg>